<svg xmlns="http://www.w3.org/2000/svg" width="24" height="24" fill="none"><g clip-path="url(#a)"><path fill="#36F" d="M24 12.25c0-6.627-5.372-12-12-12-6.627 0-12 5.373-12 12 0 5.628 3.875 10.35 9.102 11.647v-7.98H6.627v-3.666h2.475v-1.58c0-4.085 1.848-5.978 5.858-5.978.76 0 2.072.15 2.609.298v3.324c-.283-.03-.775-.045-1.386-.045-1.968 0-2.728.746-2.728 2.684v1.296h3.92l-.674 3.668h-3.246v8.245C19.395 23.445 24 18.386 24 12.25Z"/></g><defs><clipPath id="a"><path fill="#fff" d="M0 0h24v24H0z"/></clipPath></defs></svg>