<svg xmlns="http://www.w3.org/2000/svg" width="25" height="25" fill="none"><path fill="#36F" d="M12.147.25c6.58 0 12 5.42 12 12 0 6.63-5.42 12-12 12-6.63 0-12-5.37-12-12 0-6.58 5.37-12 12-12Zm5.516 8.178a.82.82 0 0 0 0-.484c0-.097-.097-.242-.145-.29-.145-.145-.387-.145-.484-.145-.435 0-1.161.241-4.5 1.645-1.161.484-3.484 1.451-6.968 3-.58.242-.87.435-.92.677-.048.387.582.532 1.307.774.63.194 1.452.436 1.887.436.387 0 .823-.145 1.307-.484 3.242-2.226 4.935-3.339 5.032-3.339.097 0 .194-.048.242 0 .097.097.097.194.048.242-.048.242-3.096 3.049-3.29 3.242-.677.678-1.452 1.113-.242 1.887 1.016.678 1.597 1.113 2.662 1.79.677.436 1.21.968 1.887.92.338-.049.677-.339.822-1.258.436-2.08 1.21-6.726 1.355-8.613Z"/></svg>