<svg xmlns="http://www.w3.org/2000/svg" width="24" height="24" fill="none"><path fill="#36F" d="M12 0C8.743 0 8.334.014 7.054.072 5.775.131 4.903.333 4.14.63a5.876 5.876 0 0 0-2.126 1.384A5.89 5.89 0 0 0 .63 4.139c-.297.763-.5 1.636-.557 2.913C.015 8.332 0 8.74 0 12c0 3.259.014 3.667.072 4.947.059 1.277.261 2.15.558 2.912a5.88 5.88 0 0 0 1.384 2.126 5.876 5.876 0 0 0 2.125 1.385c.763.297 1.635.5 2.913.558 1.28.058 1.688.072 4.947.072 3.26 0 3.667-.014 4.947-.072 1.278-.059 2.15-.261 2.914-.558a5.872 5.872 0 0 0 2.125-1.385 5.89 5.89 0 0 0 1.384-2.125c.296-.764.498-1.636.558-2.913.058-1.28.073-1.688.073-4.947 0-3.259-.015-3.668-.073-4.948-.06-1.278-.262-2.15-.558-2.913a5.89 5.89 0 0 0-1.384-2.125A5.865 5.865 0 0 0 19.86.63c-.765-.297-1.638-.5-2.916-.558C15.664.014 15.257 0 11.997 0H12Zm-1.076 2.162h1.077c3.204 0 3.583.012 4.849.07 1.17.053 1.805.248 2.228.413.56.217.959.477 1.379.897.42.42.68.82.898 1.38.164.423.36 1.058.413 2.228.058 1.265.07 1.645.07 4.847 0 3.203-.012 3.583-.07 4.848-.053 1.17-.249 1.805-.413 2.227a3.71 3.71 0 0 1-.898 1.379c-.42.42-.819.68-1.38.897-.422.165-1.057.36-2.227.414-1.265.057-1.645.07-4.85.07-3.204 0-3.583-.013-4.848-.07-1.17-.054-1.805-.25-2.229-.414a3.717 3.717 0 0 1-1.38-.897c-.42-.42-.68-.82-.898-1.38-.164-.422-.36-1.057-.413-2.227-.057-1.265-.069-1.645-.069-4.85 0-3.204.012-3.582.069-4.847.054-1.17.249-1.805.413-2.228.218-.56.478-.96.898-1.38.42-.42.82-.68 1.38-.898.423-.165 1.059-.36 2.229-.414 1.107-.05 1.536-.065 3.772-.068v.003Zm7.482 1.993a1.44 1.44 0 1 0 0 2.88 1.44 1.44 0 0 0 0-2.88Zm-6.405 1.682a6.163 6.163 0 1 0 0 12.326 6.163 6.163 0 0 0 0-12.326ZM12 8a4 4 0 1 1 0 8 4 4 0 0 1 0-8Z"/></svg>