<svg xmlns="http://www.w3.org/2000/svg" width="25" height="25" fill="none"><path fill="#36F" d="M23.057.25c.91 0 1.714.804 1.714 1.768v20.518c0 .964-.803 1.714-1.714 1.714H2.432c-.91 0-1.66-.75-1.66-1.714V2.018c0-.964.75-1.768 1.66-1.768h20.625ZM8.003 20.822V9.412H4.468v11.41h3.535ZM6.235 7.804c1.125 0 2.036-.91 2.036-2.036 0-1.125-.91-2.089-2.036-2.089-1.178 0-2.089.964-2.089 2.09 0 1.124.91 2.035 2.09 2.035Zm15.108 13.018v-6.268c0-3.053-.697-5.464-4.286-5.464-1.714 0-2.893.964-3.375 1.875h-.054V9.41h-3.375v11.41h3.536v-5.624c0-1.5.268-2.946 2.143-2.946 1.821 0 1.821 1.714 1.821 3v5.57h3.59Z"/></svg>