<svg width="29" height="40" viewBox="0 0 29 40" fill="none" xmlns="http://www.w3.org/2000/svg">
<path fill-rule="evenodd" clip-rule="evenodd" d="M5.13014 0H0V5.19157C1.41861 3.22027 3.14902 1.46894 5.13014 0ZM2.33897 12.7454C2.1703 12.3662 2.9065 11.4622 3.15175 11.1705C3.57022 10.7154 4.09582 10.3606 4.68546 10.135C5.1796 9.91548 5.71318 9.78696 6.25746 9.75597C7.26147 9.76919 8.23836 10.0663 9.06413 10.609C9.49947 10.8697 9.88125 11.2032 10.1915 11.5933C10.4935 12.0302 10.6778 12.5311 10.7282 13.0517C10.7537 13.2482 10.8107 13.44 10.8971 13.6203C11.0154 13.771 11.118 13.9322 11.2037 14.1017C11.2597 14.2547 11.2073 14.4246 11.0733 14.5245C10.9468 14.5802 10.8012 14.5802 10.6747 14.5245C10.4998 14.4763 10.3249 14.4349 10.1501 14.3936C9.84949 14.3226 9.5489 14.2515 9.2483 14.1454C8.81889 14.01 8.3774 13.9123 7.92929 13.8537C7.46002 13.7775 6.98883 13.723 6.51855 13.6686C6.04366 13.6137 5.5697 13.5588 5.0996 13.4818C4.0108 13.307 2.47709 13.0443 2.33897 12.7454ZM11.6486 15.9245C12.9197 14.796 13.9167 13.4175 14.5701 11.885C15.1915 10.4267 15.5288 8.77162 14.7926 7.32782C14.0564 5.88402 12.2084 5.10382 10.6133 4.66648C9.07029 4.30715 7.4682 4.2378 5.89711 4.46233C3.38948 4.76855 0.766969 7.24763 0 8.02046V16.3621C1.62579 16.5443 9.96923 17.3828 11.6486 15.9245ZM24.3402 16.6321C24.2039 16.7818 24.0434 16.9097 23.8647 17.0113C23.6742 17.0653 23.4914 17.1414 23.3202 17.2374C23.1809 17.3306 23.1194 17.4975 23.1668 17.6531C23.2343 17.7679 23.3478 17.852 23.4814 17.8863C23.6678 17.9463 23.8483 18.012 24.0285 18.0776C24.3078 18.1792 24.5863 18.2805 24.8847 18.3602C25.323 18.4877 25.749 18.6511 26.1576 18.8487C26.5706 19.0381 26.9747 19.2443 27.3785 19.4504C27.8145 19.6729 28.25 19.8951 28.6958 20.0957L28.9718 20.2197V23.3039C26.4484 23.3829 25.1266 22.3852 24.1851 21.6745C23.5617 21.2039 23.105 20.8591 22.5765 21.0363C22.0063 21.2281 22.0286 22.7928 22.0378 23.4307C22.0387 23.4963 22.0395 23.5521 22.0395 23.5956V27.2415C21.9695 28.2269 22.0944 29.2162 22.4076 30.1581C22.9061 31.2298 23.3355 31.4049 24.2176 31.4049C25.0994 31.4049 28.4351 30.2455 28.9718 28.7871V39.9433H10.8053L6.43413 37.1944C6.02022 36.932 5.07684 35.9476 5.07684 35.4736C5.07684 34.9997 6.29624 34.3216 6.70263 34.2704C6.92392 34.2427 7.24531 34.4224 7.58626 34.6132C7.87145 34.7727 8.17032 34.9399 8.43577 34.9997C9.20046 34.9958 9.9631 34.9225 10.7132 34.7808C11.0451 34.7808 11.7083 35.2575 12.284 35.6714C12.6394 35.9269 12.9615 36.1585 13.1518 36.2391C13.7679 36.4199 14.422 36.45 15.0536 36.3267C15.506 36.2391 15.9124 35.984 15.9584 35.7287C16.0163 35.399 15.3161 34.7781 14.9291 34.4349C14.8539 34.3682 14.7905 34.3119 14.7468 34.2704C14.2237 33.6246 13.4716 33.1814 12.6303 33.0236C12.1849 33.065 11.7357 33.0455 11.296 32.9653C10.8415 32.7273 10.4301 32.4222 10.0768 32.0611C9.36366 31.4632 7.58447 31.9881 6.71038 32.2727C5.976 32.5527 5.19946 32.72 4.4097 32.7683C3.17503 32.7683 2.45433 32.3381 2.40829 32.0393C2.36225 31.7402 2.97582 31.4925 3.31315 31.4049C3.68057 31.2764 4.02884 31.1022 4.34839 30.8872C4.84256 30.628 5.33689 30.359 5.82675 30.0924C5.92974 30.0364 6.03254 29.9804 6.13509 29.9247C6.23061 29.8728 6.32741 29.8196 6.42541 29.7657C7.59425 29.1228 8.93423 28.3857 10.3068 28.7288C10.66 28.817 11.0766 29.113 11.4705 29.3928C11.7609 29.599 12.0389 29.7965 12.2699 29.8954C12.7055 30.0658 13.1657 30.1716 13.635 30.209C13.34 29.702 13.0133 29.1702 12.7423 28.729C12.4637 28.2754 12.2439 27.9177 12.1779 27.7809C11.9572 27.1524 11.5431 26.6011 10.9892 26.1986C10.5628 25.9482 10.0564 26.0121 9.55109 26.0759C9.12972 26.1291 8.70903 26.1823 8.33594 26.053C7.66972 25.7099 7.27426 25.0292 7.32372 24.3101C7.32372 23.5988 8.06876 22.9977 8.6553 22.5245C8.76016 22.4399 8.85995 22.3594 8.94952 22.2831C9.66543 21.6704 10.4748 21.1639 11.3498 20.781C12.4003 20.3437 13.8957 19.7748 15.0996 20.052C15.692 20.3235 16.3441 20.4561 17.0014 20.4384C17.304 20.388 17.2098 19.9359 17.1231 19.5197C17.0846 19.3345 17.0475 19.1563 17.0475 19.0238C17.0475 18.0275 17.4268 17.0876 17.8008 16.1605C17.9113 15.8868 18.0213 15.6141 18.121 15.3415C18.7268 13.6864 19.4017 11.9292 20.7437 10.6603C22.8525 8.62617 26.3876 8.58954 28.9873 9.96768V15.8957C28.4057 15.6978 27.7951 15.5871 27.1776 15.5675C26.6579 15.5431 26.1381 15.6098 25.6439 15.7645C25.1429 15.9509 24.696 16.2485 24.3402 16.6321Z" fill="#19191A"/>
</svg>
